<!DOCTYPE svg PUBLIC "-//W3C//DTD SVG 1.1//EN" "http://www.w3.org/Graphics/SVG/1.1/DTD/svg11.dtd">
<!-- Uploaded to: SVG Repo, www.svgrepo.com, Transformed by: SVG Repo Mixer Tools -->
<svg fill="#fc0303" width="800px" height="800px" viewBox="0 0 32.00 32.00" version="1.1" xmlns="http://www.w3.org/2000/svg" stroke="#fc0303" stroke-width="0.00032">
<g id="SVGRepo_bgCarrier" stroke-width="0"/>
<g id="SVGRepo_tracerCarrier" stroke-linecap="round" stroke-linejoin="round"/>
<g id="SVGRepo_iconCarrier"> <title>cross-checkbox</title> <path d="M0 26.016q0 2.496 1.76 4.224t4.256 1.76h20q2.464 0 4.224-1.76t1.76-4.224v-20q0-2.496-1.76-4.256t-4.224-1.76h-20q-2.496 0-4.256 1.76t-1.76 4.256v20zM4 26.016v-20q0-0.832 0.576-1.408t1.44-0.608h20q0.8 0 1.408 0.608t0.576 1.408v20q0 0.832-0.576 1.408t-1.408 0.576h-20q-0.832 0-1.44-0.576t-0.576-1.408zM9.76 20.256q0 0.832 0.576 1.408t1.44 0.608 1.408-0.608l2.816-2.816 2.816 2.816q0.576 0.608 1.408 0.608t1.44-0.608 0.576-1.408-0.576-1.408l-2.848-2.848 2.848-2.816q0.576-0.576 0.576-1.408t-0.576-1.408-1.44-0.608-1.408 0.608l-2.816 2.816-2.816-2.816q-0.576-0.608-1.408-0.608t-1.44 0.608-0.576 1.408 0.576 1.408l2.848 2.816-2.848 2.848q-0.576 0.576-0.576 1.408z"/> </g>
</svg>